<svg height="919.54041" viewBox="0 0 1493.7 862.06904" width="1593.2802" xmlns="http://www.w3.org/2000/svg"><rect fill="#dfdfdf" height="341.10999" ry="17.436001" width="1493.7"/><path d="m.00002441 92.529998h1493.69997559v769.539042h-1493.69997559z" fill="#dfdfdf" stroke-width=".858837"/><path d="m363.20002 47.689998h295.2c3.2708 0 5.3917 1.6523 5.904 3.9757l10.836 49.141002c1.0782 4.8896-2.819 9.2768-6.3207 9.2768h-316.04c-3.5017 0-7.3989-4.3871-6.3207-9.2768l10.836-49.141002c.5123-2.3234 2.6332-3.9757 5.9039-3.9757z" fill="#ccc"/><path d="m47.100024 47.689998h295.199996c3.2708 0 5.3916 1.6523 5.9039 3.9757l10.836 49.141002c1.0782 4.8896-2.819 9.2768-6.3206 9.2768h-316.039996c-3.5017 0-7.3989-4.3871-6.3207-9.2768l10.836-49.141002c.5123-2.3234 2.6332-3.9757 5.904-3.9757z" fill="#b8b8b8"/><path d="m681.00002 47.689998h295.2c3.2707 0 5.3916 1.6523 5.9039 3.9757l10.836 49.141002c1.0781 4.8896-2.8191 9.2768-6.3208 9.2768h-316.04c-3.5017 0-7.3989-4.3871-6.3207-9.2768l10.836-49.141002c.5123-2.3234 2.6332-3.9757 5.9039-3.9757z" fill="#ccc"/><path d="m681.00002 47.689998h295.2c3.2707 0 5.3916 1.6523 5.9039 3.9757l10.836 49.141002c1.0781 4.8897-2.8191 9.2768-6.3208 9.2768h-316.04c-3.5017 0-7.3989-4.3871-6.3207-9.2768l10.836-49.141002c.5123-2.3234 2.6332-3.9757 5.9039-3.9757z" fill="none"/><path d="m4.1000244 100.75h1485.4999756v758.03028h-1485.4999756z" fill="#fff" stroke-width=".857419"/><circle cx="1468.2999" cy="24.720001" fill="#f99" r="9.1461"/><circle cx="1438.7999" cy="24.720001" fill="#c6a8f0" r="9.1461"/><circle cx="1409.2999" cy="24.720001" fill="#ccc" r="9.1461"/><circle cx="320.00012" cy="74.73999" fill="#ccc" r="14.278"/><path d="m314.30002 67.669998a1.3715 1.3715 0 0 0 -.9534 2.3554l11.366 11.368a1.3716 1.3716 0 0 0 1.9397-1.9397l-11.368-11.368a1.3715 1.3715 0 0 0 -.984-.41565z" fill="#b8b8b8" fill-rule="evenodd"/><path d="m325.90002 67.569998a1.3715 1.3715 0 0 0 -.9464.4086l-11.72 11.561a1.3725 1.3725 0 1 0 1.928 1.9538l11.718-11.563a1.3715 1.3715 0 0 0 -.9792-2.36z" fill="#b8b8b8" fill-rule="evenodd"/><path d="m144.40002 131.25h1204.89998v727.53028h-1204.89998z" fill="#f5f5f5" stroke-width=".924098"/><g fill="#afafaf" transform="translate(0 -125.625)"><path d="m177.79992 283.55988h418.72v324.8851h-418.72z" stroke-width=".977376"/><path d="m629.90002 284.03998h686.05998v25.073h-686.05998z"/><path d="m629.90002 331.57001h686.05998v25.073h-686.05998z"/><path d="m629.90002 381.71997h686.05998v25.073h-686.05998z"/><path d="m629.90002 431.85999h686.05998v25.073h-686.05998z"/><path d="m629.90002 482.01001h686.05998v25.073h-686.05998z"/><path d="m629.90002 532.15003h686.05998v25.073h-686.05998z"/><path d="m629.90002 582.29999h686.05998v25.073h-686.05998z"/><path d="m177.79992 632.135h1138.19998v25.073h-1138.19998z"/><path d="m177.79992 682.335h1138.19998v25.073h-1138.19998z"/><path d="m177.79992 732.435h1138.19998v25.073h-1138.19998z"/><path d="m177.79992 782.535h1138.19998v25.073h-1138.19998z"/><path d="m177.79992 832.735h1138.19998v25.073h-1138.19998z"/><path d="m177.79992 882.835h1138.19998v25.073h-1138.19998z"/><path d="m177.79992 930.435h1138.19998v25.073h-1138.19998z"/><path d="m177.80002 980.535v3.1406h1138.19998v-3.1406z"/><path d="m1315.9 918.235v-300.8h-386.15998l-173.37 300.28z" fill-rule="evenodd" stroke="#f5f5f5" stroke-width="21"/></g></svg>