<svg clip-rule="evenodd" fill-rule="evenodd" height="15.742" image-rendering="optimizeQuality" shape-rendering="geometricPrecision" text-rendering="geometricPrecision" viewBox="0 0 7.846 15.742" width="7.846" xmlns="http://www.w3.org/2000/svg"><path d="m3.64295 5.10489c-.014412.012825-.028493.02889-.041715.0474l-.00919.010379c-.00588.00674-.00985.014015-.011569.021618-.070869.118402-.11384.298086-.084421.367369-.00198.018511.0041.00813.015668.032129 0-.077744.031732-.219813.109345-.311242l.099825.156943c.012825.020229.038343.032393.068026.032393h.098569.027171.098371c.029749 0 .055267-.012164.068092-.032393l.099891-.156745c.077612.091231.109212.233299.109212.311044.011503-.023998.017585-.013619.015536-.032129.029419-.06915-.013486-.248835-.084091-.367369-.00192-.0076-.00582-.014742-.011767-.021618l-.00932-.010511c-.013222-.018378-.026973-.034311-.04145-.047004l-.0513029-.0583079c-.014544-.016329-.0368228-.0253859-.0630682-.0253859h-.115294-.0568539-.115427c-.026047 0-.048458.00906-.062936.025386zm-1.08915-2.84818c.011966.058308.023998.121376.035501.188213-.416025-.139094-.10994.941858.061944.907018-.00972.895581.39335 1.30295 1.04545 1.55647-1.34757-1.14706-.68509-.841372-.983969-2.30833-.045417-.22292-.072654-.521205-.223515-.721582.00423-.478631.594256-.881897 1.0321-.791459.027435.079265.048194.163951.057118.254785.086934-.021353.277593-.154034.296103-.268403.00403.00192.035897.072125.035897.117212 0 .328364-.044425.252207-.094338.483985.046938.027303.395597-.075034.442006-.104056.147159-.092222.416422-.213995.461112-.452451.00853 0 .00159-.00165.022411.010379.284336.074307.456616.271973.564506.812945-.11503.196344-.141077.457872-.181866.658646-.299078 1.46696.363601 1.16127-.9843 2.30833.652299-.253529 1.05543-.660761 1.04532-1.55588.172148-.011239.452584-1.0233.062936-.911117.023865-.139094.05064-.262057.073447-.359568.695337-1.20623-.740291-2.10393-.991704-1.73616.00145-.003768.178891-.24467.125409-.345685-.00906.0072059-.00377.00568539-.015139.00396655-.040591.0422438-.039798.0245265-.055466.0342446-.216706.136515-.458005.204608-.719665.204608 0-.0483919.015403-.138697.0076-.201897-.017453-.0032394-.202294.117476-.237795.133276-.524973.236935-.973855.553466-1.15195 1.15698005-.066043.222524.073579.899482.270849.925529zm.051036.283675c.032261.210888.055466.450666.049648.691436-.0966513-.226821-.1591907-.582753-.049648-.691436zm2.57694.665653c-.0035-.228077.018511-.454236.048723-.654878.092222.11503.038872.434932-.048723.654878zm-3.03858 4.50104c.024857-.00945.086537-.045219.135392-.062143.229267-.079529.616931.043103.678479.292467-.018775.085479-.452055.061019-.580703-.0074-.172942-.091826-.202823-.234423-.233167-.22292zm2.96255-.409943c.049185-.018511.171223-.08938.267874-.122831.453245-.157075 1.21991.085281 1.34155.578522-.037021.168777-.893929.120451-1.14832-.014742-.342181-.181734-.401151-.463492-.461112-.440948zm2.21082-1.22758c.163885.312829.417281.897366.47711 1.5184.137309 1.4269.080323 2.23647-1.11751 2.08092l-.158794-.021353c-.073712.477573-.126665.976697-.130698 1.46696-.00972 1.19962.334711 3.54623.326579 4.28407-.00284.266156.07629.338611-.158728.338611-.364857 0-1.33805-.02175-1.70231 0-1.12353.06697-.80997-2.05348-.924074-2.93783-.0751.902192.00767 2.91542-.815655 2.93783-.415562.01137-1.37758 0-1.79348 0-.325522 0-.227217-.04033-.229068-.406373-.00383-.737845.388524-3.0676.41543-4.21724.011767-.497273-.028096-.999439-.096387-1.47721-.082901.011701-.162959.022676-.238985.032526-1.19803.155357-1.25488-.654018-1.11758-2.08092.0626715-.650382.337554-1.26064.499719-1.56077.0703402-.197931.227085-.360097.50481-.466334.545467-.208773 1.09093-.417612 1.6366-.626385.200906.231713.241761.463425.442667.695072.035567.252934.115625.717219.212541 1.26381.083694-.068489.134598-.120583.303375.119724l.084686-1.45209c.00159-.028758.036691-.049714.074902-.049714h.10399.103924c.038409 0 .073513.020957.0751.049714l.085876 1.47139.0007933-.00119c.187155-.273295.234555-.202426.327968-.12812.095197-.550888.173801-1.01914.209566-1.27353.200906-.231647.241827-.463359.442733-.695072.545599.208773 1.09107.417612 1.63653.626385.297293.11384.455823.291608.518362.50871zm-3.64797 4.84025c.031071.04079.248042.286782.256702.295706.036558.0012.246653-.248835.240042-.286385 0 .309986-.163885.440948-.213599.899085-.10194-.392094-.172942-.404787-.254388-.803359 0 0-.029551-.106171-.028758-.105048zm.258884 1.25284c.038608 0 .069745.03114.069745.06975 0 .03867-.031137.06981-.069745.06981-.038674 0-.069811-.03114-.069811-.06981 0-.03861.031137-.06975.069811-.06975z"/></svg>