<svg enable-background="new 0 0 100 100" height="100" viewBox="0 0 100 100" width="100" xmlns="http://www.w3.org/2000/svg"><path d="m12.830746 99.774746h-11.039c-1.1 0-2-.9-2-2v-95.537c0-1.1.9-2 2-2h11.039c1.1 0 2 .9 2 2v95.536c0 1.101-.9 2.001-2 2.001z"/><path d="m37.737746 99.774746h-10.884c-1.1 0-2-.9-2-2v-81.468c0-1.1.9-2 2-2h10.884c1.1 0 2 .9 2 2v81.467c0 1.101-.9 2.001-2 2.001z"/><path d="m62.487746 99.774746h-10.883c-1.1 0-2-.9-2-2v-95.674c0-1.1.9-2 2-2h10.884c1.1 0 2 .9 2 2v95.674c-.001 1.1-.901 2-2.001 2z"/><path d="m98.781746 96.696746-10.427 3.119c-1.054.315004-2.174-.289-2.489-1.343l-20.211-67.559c-.315-1.054.289-2.174 1.343-2.489l10.427-3.119c1.054-.315 2.174.289 2.489 1.343l20.211004 67.559c.315 1.053-.289004 2.174-1.343004 2.489z"/></svg>