<svg height="29.687248" viewBox="0 0 25.821602 29.687248" width="25.821602" xmlns="http://www.w3.org/2000/svg"><g fill="#2e7eae" transform="translate(-3.07308 -1.396246)"><path d="m16 31.08a2 2 0 0 1 -.67-.11c-1.91-.69-8.33-3.38-10.72-9.08-1.78-4.25-1.61-11.21-1.43-14 .07-1.21 1.2-1.66 1.74-1.89 2.33-.89 8.08-3.26 10.08-4.35a2 2 0 0 1 1.95 0c2.05 1.09 7.79 3.46 10.11 4.35.54.21 1.66.66 1.73 1.87.17 2.79.36 9.75-1.42 14-2.37 5.72-8.78 8.41-10.68 9.13a2 2 0 0 1 -.69.08zm0-28.32a.72.72 0 0 0 -.32.08c-2.06 1.16-7.81 3.49-10.26 4.45-.72.28-.86.46-.88.68-.16 2.7-.34 9.41 1.33 13.39 2.13 5.2 8.13 7.69 9.93 8.32a.54.54 0 0 0 .43 0c1.77-.63 7.7-3.12 9.88-8.32 1.67-4 1.48-10.69 1.33-13.39 0-.22-.16-.4-.88-.68-2.44-.96-8.16-3.29-10.22-4.45a.8.8 0 0 0 -.34-.08z"/><path d="m18 22.07h-4a.5.5 0 0 1 -.38-.17.51.51 0 0 1 -.12-.39l.89-7.07a2.65 2.65 0 1 1 3.21 0l.89 7.07a.47.47 0 0 1 -.12.39.48.48 0 0 1 -.37.17zm-3.43-1h2.86l-.86-6.82a.49.49 0 0 1 .24-.49 1.63 1.63 0 0 0 .83-1.42 1.65 1.65 0 1 0 -3.29 0 1.63 1.63 0 0 0 .83 1.42.51.51 0 0 1 .25.49z"/></g></svg>