<svg enable-background="new 0 0 100 100" height="50.423" viewBox="0 0 90 50.423" width="90" xmlns="http://www.w3.org/2000/svg"><g fill="#2eae7e" transform="translate(-5 -24.789)"><path d="m22.568 57.759c6.177 0 11.201-5.025 11.201-11.202s-5.025-11.201-11.201-11.201-11.202 5.024-11.202 11.201 5.025 11.202 11.202 11.202zm0-17.69c3.578 0 6.488 2.91 6.488 6.488s-2.91 6.488-6.488 6.488-6.488-2.911-6.488-6.488 2.91-6.488 6.488-6.488z"/><path d="m9.714 74.243c0-4.813 3.915-8.728 8.728-8.728h8.251c.247 0 .492.01.734.031.683.059 1.361-.17 1.857-.626.483-.445.75-1.053.75-1.712 0-1.202-.92-2.233-2.096-2.346-.41-.039-.825-.06-1.245-.06h-8.251c-7.412-.001-13.442 6.029-13.442 13.441v.969h4.714z"/><path d="m30.87 75.211h4.714v-5.803c0-5.44 4.426-9.866 9.867-9.866h9.099c5.44 0 9.867 4.426 9.867 9.866v5.803h4.714v-5.803c0-4.921-2.471-9.48-6.61-12.194-2.38-1.561-5.136-2.386-7.97-2.386h-9.099c-4.503 0-8.688 2.05-11.482 5.624-2.027 2.593-3.098 5.69-3.098 8.956v5.803z"/><path d="m81.558 60.801h-8.251c-.231 0-.46.007-.688.019-1.271.07-2.267 1.107-2.267 2.362 0 .648.269 1.273.739 1.716.473.445 1.092.668 1.736.631.159-.01.319-.014.48-.014h8.251c4.813 0 8.728 3.915 8.728 8.728v.969h4.714v-.969c0-7.412-6.03-13.442-13.442-13.442z"/><path d="m77.432 57.759c6.177 0 11.202-5.025 11.202-11.202s-5.025-11.201-11.202-11.201-11.202 5.024-11.202 11.201 5.026 11.202 11.202 11.202zm0-17.69c3.578 0 6.488 2.91 6.488 6.488s-2.911 6.488-6.488 6.488-6.488-2.911-6.488-6.488 2.911-6.488 6.488-6.488z"/><path d="m50 52.971c7.769 0 14.091-6.321 14.091-14.091s-6.321-14.091-14.091-14.091-14.091 6.321-14.091 14.091c0 7.769 6.321 14.091 14.091 14.091zm0-23.469c5.17 0 9.377 4.207 9.377 9.378 0 5.17-4.207 9.377-9.377 9.377-5.171 0-9.378-4.207-9.378-9.377 0-5.171 4.207-9.378 9.378-9.378z"/></g></svg>